<?xml version="1.0" encoding="UTF-8" standalone="no"?>
<!DOCTYPE svg PUBLIC "-//W3C//DTD SVG 1.1//EN"
 "http://www.w3.org/Graphics/SVG/1.1/DTD/svg11.dtd">
<!-- Generated by graphviz version 2.40.1 (20161225.0304)
 -->
<!-- Title: G Pages: 1 -->
<svg width="1927pt" height="656pt"
 viewBox="0.00 0.00 1927.28 655.73" xmlns="http://www.w3.org/2000/svg" xmlns:xlink="http://www.w3.org/1999/xlink">
<g id="graph0" class="graph" transform="scale(1 1) rotate(0) translate(4 651.73)">
<title>G</title><style>.edge>path:hover{stroke-width:8}</style>
<polygon fill="#ffffff" stroke="transparent" points="-4,4 -4,-651.73 1923.2809,-651.73 1923.2809,4 -4,4"/>
<!-- beepy -->
<g id="node1" class="node">
<title>beepy</title><style>.edge>path:hover{stroke-width:8}</style>
<ellipse fill="#c04040" stroke="#000000" cx="1289.8994" cy="-169.196" rx="27" ry="18"/>
<text text-anchor="middle" x="1289.8994" y="-166.196" font-family="Helvetica,sans-Serif" font-size="10.00" fill="#ffffff">beepy</text>
</g>
<!-- supermark_command -->
<g id="node20" class="node">
<title>supermark_command</title><style>.edge>path:hover{stroke-width:8}</style>
<ellipse fill="#4f3781" stroke="#000000" cx="370.8994" cy="-19.799" rx="46.8595" ry="19.6"/>
<text text-anchor="middle" x="370.8994" y="-21.799" font-family="Helvetica,sans-Serif" font-size="10.00" fill="#ffffff">supermark.</text>
<text text-anchor="middle" x="370.8994" y="-11.799" font-family="Helvetica,sans-Serif" font-size="10.00" fill="#ffffff">command</text>
</g>
<!-- beepy&#45;&gt;supermark_command -->
<g id="edge1" class="edge">
<title>beepy&#45;&gt;supermark_command</title><style>.edge>path:hover{stroke-width:8}</style>
<path fill="none" stroke="#000000" d="M1295.929,-151.5774C1300.3999,-134.9083 1303.6143,-110.2865 1289.8994,-95.397"/>
</g>
<!-- black -->
<g id="node2" class="node">
<title>black</title><style>.edge>path:hover{stroke-width:8}</style>
<ellipse fill="#b8663d" stroke="#000000" cx="1034.8994" cy="-408.333" rx="27" ry="18"/>
<text text-anchor="middle" x="1034.8994" y="-405.333" font-family="Helvetica,sans-Serif" font-size="10.00" fill="#ffffff">black</text>
</g>
<!-- supermark_code -->
<g id="node19" class="node">
<title>supermark_code</title><style>.edge>path:hover{stroke-width:8}</style>
<ellipse fill="#553399" stroke="#000000" cx="932.8994" cy="-250.066" rx="50.7667" ry="18"/>
<text text-anchor="middle" x="932.8994" y="-247.066" font-family="Helvetica,sans-Serif" font-size="10.00" fill="#ffffff">supermark.code</text>
</g>
<!-- black&#45;&gt;supermark_code -->
<g id="edge2" class="edge">
<title>black&#45;&gt;supermark_code</title><style>.edge>path:hover{stroke-width:8}</style>
<path fill="none" stroke="#000000" d="M1015.4306,-395.4919C990.9088,-378.754 951.3033,-349.631 945.8994,-332.7351"/>
</g>
<!-- blindspin -->
<g id="node3" class="node">
<title>blindspin</title><style>.edge>path:hover{stroke-width:8}</style>
<ellipse fill="#b69553" stroke="#000000" cx="519.8994" cy="-250.066" rx="32.0543" ry="18"/>
<text text-anchor="middle" x="519.8994" y="-247.066" font-family="Helvetica,sans-Serif" font-size="10.00" fill="#000000">blindspin</text>
</g>
<!-- supermark_build_html -->
<g id="node17" class="node">
<title>supermark_build_html</title><style>.edge>path:hover{stroke-width:8}</style>
<ellipse fill="#482b82" stroke="#000000" cx="88.8994" cy="-95.397" rx="46.8595" ry="19.6"/>
<text text-anchor="middle" x="88.8994" y="-97.397" font-family="Helvetica,sans-Serif" font-size="10.00" fill="#ffffff">supermark.</text>
<text text-anchor="middle" x="88.8994" y="-87.397" font-family="Helvetica,sans-Serif" font-size="10.00" fill="#ffffff">build_html</text>
</g>
<!-- blindspin&#45;&gt;supermark_build_html -->
<g id="edge3" class="edge">
<title>blindspin&#45;&gt;supermark_build_html</title><style>.edge>path:hover{stroke-width:8}</style>
<path fill="none" stroke="#000000" d="M499.8853,-235.9605C493.3418,-231.6191 485.9429,-226.9888 478.8994,-223.196 425.6157,-194.5033 395.5889,-213.064 353.8994,-169.196"/>
</g>
<!-- cairosvg -->
<g id="node4" class="node">
<title>cairosvg</title><style>.edge>path:hover{stroke-width:8}</style>
<ellipse fill="#bfc040" stroke="#000000" cx="1411.8994" cy="-483.931" rx="30.9738" ry="18"/>
<text text-anchor="middle" x="1411.8994" y="-480.931" font-family="Helvetica,sans-Serif" font-size="10.00" fill="#000000">cairosvg</text>
</g>
<!-- supermark_extensions_figure -->
<g id="node23" class="node">
<title>supermark_extensions_figure</title><style>.edge>path:hover{stroke-width:8}</style>
<ellipse fill="#6646a4" stroke="#000000" cx="1419.8994" cy="-250.066" rx="47.1669" ry="26.7407"/>
<text text-anchor="middle" x="1419.8994" y="-257.066" font-family="Helvetica,sans-Serif" font-size="10.00" fill="#ffffff">supermark.</text>
<text text-anchor="middle" x="1419.8994" y="-247.066" font-family="Helvetica,sans-Serif" font-size="10.00" fill="#ffffff">extensions.</text>
<text text-anchor="middle" x="1419.8994" y="-237.066" font-family="Helvetica,sans-Serif" font-size="10.00" fill="#ffffff">figure</text>
</g>
<!-- cairosvg&#45;&gt;supermark_extensions_figure -->
<g id="edge4" class="edge">
<title>cairosvg&#45;&gt;supermark_extensions_figure</title><style>.edge>path:hover{stroke-width:8}</style>
<path fill="none" stroke="#000000" d="M1412.5271,-465.58C1413.8373,-427.2788 1416.8852,-338.1789 1418.624,-287.3484"/>
<polygon fill="#bfc040" stroke="#000000" points="1422.1301,-287.2285 1418.9741,-277.1146 1415.1342,-286.9891 1422.1301,-287.2285"/>
</g>
<!-- click -->
<g id="node5" class="node">
<title>click</title><style>.edge>path:hover{stroke-width:8}</style>
<ellipse fill="#99c247" stroke="#000000" cx="1249.8994" cy="-483.931" rx="27" ry="18"/>
<text text-anchor="middle" x="1249.8994" y="-480.931" font-family="Helvetica,sans-Serif" font-size="10.00" fill="#000000">click</text>
</g>
<!-- click&#45;&gt;black -->
<g id="edge5" class="edge">
<title>click&#45;&gt;black</title><style>.edge>path:hover{stroke-width:8}</style>
<path fill="none" stroke="#000000" d="M1224.4263,-477.7172C1189.1869,-468.7358 1123.9107,-450.7013 1070.8994,-428.132 1068.7664,-427.224 1066.5949,-426.2273 1064.4288,-425.1793"/>
<polygon fill="#99c247" stroke="#000000" points="1065.597,-421.8437 1055.105,-420.3704 1062.3882,-428.065 1065.597,-421.8437"/>
</g>
<!-- click&#45;&gt;supermark_command -->
<g id="edge6" class="edge">
<title>click&#45;&gt;supermark_command</title><style>.edge>path:hover{stroke-width:8}</style>
<path fill="none" stroke="#000000" d="M1246.6742,-465.7284C1238.3573,-414.7108 1219.1677,-266.5318 1253.8994,-151.196 1262.4093,-122.9365 1309.8945,-117.1044 1289.8994,-95.397"/>
<path fill="none" stroke="#000000" d="M1289.8994,-95.397C1229.4836,-33.8268 619.368,-22.3448 427.9973,-20.2533"/>
<polygon fill="#99c247" stroke="#000000" points="427.9017,-16.7522 417.8656,-20.1472 427.8283,-23.7519 427.9017,-16.7522"/>
</g>
<!-- colorama -->
<g id="node6" class="node">
<title>colorama</title><style>.edge>path:hover{stroke-width:8}</style>
<ellipse fill="#6cce3b" stroke="#000000" cx="693.8994" cy="-629.73" rx="32.9657" ry="18"/>
<text text-anchor="middle" x="693.8994" y="-626.73" font-family="Helvetica,sans-Serif" font-size="10.00" fill="#000000">colorama</text>
</g>
<!-- pretty_errors -->
<g id="node9" class="node">
<title>pretty_errors</title><style>.edge>path:hover{stroke-width:8}</style>
<ellipse fill="#4cb391" stroke="#000000" cx="732.8994" cy="-557.73" rx="41.9289" ry="18"/>
<text text-anchor="middle" x="732.8994" y="-554.73" font-family="Helvetica,sans-Serif" font-size="10.00" fill="#000000">pretty_errors</text>
</g>
<!-- colorama&#45;&gt;pretty_errors -->
<g id="edge7" class="edge">
<title>colorama&#45;&gt;pretty_errors</title><style>.edge>path:hover{stroke-width:8}</style>
<path fill="none" stroke="#000000" d="M703.3402,-612.3008C707.8714,-603.9355 713.4005,-593.728 718.4456,-584.4139"/>
<polygon fill="#6cce3b" stroke="#000000" points="721.5892,-585.9588 723.2746,-575.4989 715.4341,-582.6248 721.5892,-585.9588"/>
</g>
<!-- colorama&#45;&gt;supermark_command -->
<g id="edge8" class="edge">
<title>colorama&#45;&gt;supermark_command</title><style>.edge>path:hover{stroke-width:8}</style>
<path fill="none" stroke="#000000" d="M13.8994,-95.397C39.5812,-41.683 219.9905,-26.0916 314.0832,-21.598"/>
<polygon fill="#6cce3b" stroke="#000000" points="314.4562,-25.0849 324.2884,-21.138 314.141,-18.092 314.4562,-25.0849"/>
<path fill="none" stroke="#000000" d="M668.4508,-617.8275C663.0625,-615.5904 657.3539,-613.425 651.8994,-611.73 513.8186,-568.8208 13.8994,-628.5252 13.8994,-483.931 13.8994,-483.931 13.8994,-483.931 13.8994,-250.066 13.8994,-181.3242 -15.7526,-157.4147 13.8994,-95.397"/>
</g>
<!-- supermark_report -->
<g id="node28" class="node">
<title>supermark_report</title><style>.edge>path:hover{stroke-width:8}</style>
<ellipse fill="#5306ef" stroke="#000000" cx="653.8994" cy="-483.931" rx="46.8595" ry="19.6"/>
<text text-anchor="middle" x="653.8994" y="-485.931" font-family="Helvetica,sans-Serif" font-size="10.00" fill="#ffffff">supermark.</text>
<text text-anchor="middle" x="653.8994" y="-475.931" font-family="Helvetica,sans-Serif" font-size="10.00" fill="#ffffff">report</text>
</g>
<!-- colorama&#45;&gt;supermark_report -->
<g id="edge9" class="edge">
<title>colorama&#45;&gt;supermark_report</title><style>.edge>path:hover{stroke-width:8}</style>
<path fill="none" stroke="#000000" d="M678.4673,-613.6721C666.9556,-599.9246 653.3082,-579.028 653.8994,-557.73"/>
</g>
<!-- icecream -->
<g id="node7" class="node">
<title>icecream</title><style>.edge>path:hover{stroke-width:8}</style>
<ellipse fill="#53b653" stroke="#000000" cx="1579.8994" cy="-483.931" rx="32.818" ry="18"/>
<text text-anchor="middle" x="1579.8994" y="-480.931" font-family="Helvetica,sans-Serif" font-size="10.00" fill="#000000">icecream</text>
</g>
<!-- supermark_extensions_hints -->
<g id="node24" class="node">
<title>supermark_extensions_hints</title><style>.edge>path:hover{stroke-width:8}</style>
<ellipse fill="#6646a4" stroke="#000000" cx="1531.8994" cy="-250.066" rx="47.1669" ry="26.7407"/>
<text text-anchor="middle" x="1531.8994" y="-257.066" font-family="Helvetica,sans-Serif" font-size="10.00" fill="#ffffff">supermark.</text>
<text text-anchor="middle" x="1531.8994" y="-247.066" font-family="Helvetica,sans-Serif" font-size="10.00" fill="#ffffff">extensions.</text>
<text text-anchor="middle" x="1531.8994" y="-237.066" font-family="Helvetica,sans-Serif" font-size="10.00" fill="#ffffff">hints</text>
</g>
<!-- icecream&#45;&gt;supermark_extensions_hints -->
<g id="edge10" class="edge">
<title>icecream&#45;&gt;supermark_extensions_hints</title><style>.edge>path:hover{stroke-width:8}</style>
<path fill="none" stroke="#000000" d="M1576.4607,-465.9319C1570.4693,-434.7351 1557.6329,-368.6166 1545.8994,-312.9361 1544.1095,-304.4424 1542.1179,-295.3191 1540.2114,-286.729"/>
<polygon fill="#53b653" stroke="#000000" points="1543.6251,-285.9563 1538.0297,-276.9596 1536.7934,-287.4821 1543.6251,-285.9563"/>
</g>
<!-- indentation -->
<g id="node8" class="node">
<title>indentation</title><style>.edge>path:hover{stroke-width:8}</style>
<ellipse fill="#53b674" stroke="#000000" cx="605.8994" cy="-629.73" rx="37.4755" ry="18"/>
<text text-anchor="middle" x="605.8994" y="-626.73" font-family="Helvetica,sans-Serif" font-size="10.00" fill="#000000">indentation</text>
</g>
<!-- indentation&#45;&gt;supermark_report -->
<g id="edge11" class="edge">
<title>indentation&#45;&gt;supermark_report</title><style>.edge>path:hover{stroke-width:8}</style>
<path fill="none" stroke="#000000" d="M653.8994,-557.73C654.2977,-543.3797 654.3473,-527.4538 654.2772,-514.0805"/>
<polygon fill="#53b674" stroke="#000000" points="657.7764,-513.9543 654.1997,-503.9815 650.7766,-514.0081 657.7764,-513.9543"/>
<path fill="none" stroke="#000000" d="M624.2616,-613.6929C637.5507,-600.269 653.2866,-579.8055 653.8994,-557.73"/>
</g>
<!-- pretty_errors&#45;&gt;supermark_command -->
<g id="edge12" class="edge">
<title>pretty_errors&#45;&gt;supermark_command</title><style>.edge>path:hover{stroke-width:8}</style>
<path fill="none" stroke="#000000" d="M775.0133,-555.7626C896.6884,-549.7818 1242.812,-530.5713 1285.8994,-503.73 1328.213,-477.3707 1344.8994,-458.1853 1344.8994,-408.333 1344.8994,-408.333 1344.8994,-408.333 1344.8994,-250.066 1344.8994,-177.1074 1340.9984,-147.4724 1289.8994,-95.397"/>
</g>
<!-- pygments -->
<g id="node10" class="node">
<title>pygments</title><style>.edge>path:hover{stroke-width:8}</style>
<ellipse fill="#3bcece" stroke="#000000" cx="1113.8994" cy="-408.333" rx="34.0382" ry="18"/>
<text text-anchor="middle" x="1113.8994" y="-405.333" font-family="Helvetica,sans-Serif" font-size="10.00" fill="#000000">pygments</text>
</g>
<!-- pygments&#45;&gt;supermark_code -->
<g id="edge13" class="edge">
<title>pygments&#45;&gt;supermark_code</title><style>.edge>path:hover{stroke-width:8}</style>
<path fill="none" stroke="#000000" d="M1087.9999,-396.3487C1082.3681,-393.7593 1076.4384,-391.0454 1070.8994,-388.5341 1015.4893,-363.4112 964.433,-390.6828 945.8994,-332.7351"/>
</g>
<!-- pygments_formatters -->
<g id="node11" class="node">
<title>pygments_formatters</title><style>.edge>path:hover{stroke-width:8}</style>
<ellipse fill="#3db8b8" stroke="#000000" cx="839.8994" cy="-408.333" rx="43.8692" ry="19.6"/>
<text text-anchor="middle" x="839.8994" y="-410.333" font-family="Helvetica,sans-Serif" font-size="10.00" fill="#000000">pygments.</text>
<text text-anchor="middle" x="839.8994" y="-400.333" font-family="Helvetica,sans-Serif" font-size="10.00" fill="#000000">formatters</text>
</g>
<!-- pygments_formatters&#45;&gt;supermark_code -->
<g id="edge14" class="edge">
<title>pygments_formatters&#45;&gt;supermark_code</title><style>.edge>path:hover{stroke-width:8}</style>
<path fill="none" stroke="#000000" d="M945.8994,-332.7351C940.2356,-315.0266 936.9858,-294.3651 935.1519,-278.1279"/>
<polygon fill="#3db8b8" stroke="#000000" points="938.6333,-277.7669 934.14,-268.172 931.6692,-278.4747 938.6333,-277.7669"/>
<path fill="none" stroke="#000000" d="M870.9147,-394.0864C904.2255,-377.7255 951.6834,-350.8196 945.8994,-332.7351"/>
</g>
<!-- pygments_lexers -->
<g id="node12" class="node">
<title>pygments_lexers</title><style>.edge>path:hover{stroke-width:8}</style>
<ellipse fill="#3db8b8" stroke="#000000" cx="945.8994" cy="-408.333" rx="43.8692" ry="19.6"/>
<text text-anchor="middle" x="945.8994" y="-410.333" font-family="Helvetica,sans-Serif" font-size="10.00" fill="#000000">pygments.</text>
<text text-anchor="middle" x="945.8994" y="-400.333" font-family="Helvetica,sans-Serif" font-size="10.00" fill="#000000">lexers</text>
</g>
<!-- pygments_lexers&#45;&gt;supermark_code -->
<g id="edge15" class="edge">
<title>pygments_lexers&#45;&gt;supermark_code</title><style>.edge>path:hover{stroke-width:8}</style>
<path fill="none" stroke="#000000" d="M949.1326,-388.564C950.9159,-373.0084 951.7367,-350.9863 945.8994,-332.7351"/>
</g>
<!-- pypandoc -->
<g id="node13" class="node">
<title>pypandoc</title><style>.edge>path:hover{stroke-width:8}</style>
<ellipse fill="#16a9f3" stroke="#000000" cx="1494.8994" cy="-483.931" rx="34.055" ry="18"/>
<text text-anchor="middle" x="1494.8994" y="-480.931" font-family="Helvetica,sans-Serif" font-size="10.00" fill="#000000">pypandoc</text>
</g>
<!-- supermark_chunks -->
<g id="node18" class="node">
<title>supermark_chunks</title><style>.edge>path:hover{stroke-width:8}</style>
<ellipse fill="#4c05db" stroke="#000000" cx="729.8994" cy="-332.7351" rx="46.8595" ry="19.6"/>
<text text-anchor="middle" x="729.8994" y="-334.7351" font-family="Helvetica,sans-Serif" font-size="10.00" fill="#ffffff">supermark.</text>
<text text-anchor="middle" x="729.8994" y="-324.7351" font-family="Helvetica,sans-Serif" font-size="10.00" fill="#ffffff">chunks</text>
</g>
<!-- pypandoc&#45;&gt;supermark_chunks -->
<g id="edge16" class="edge">
<title>pypandoc&#45;&gt;supermark_chunks</title><style>.edge>path:hover{stroke-width:8}</style>
<path fill="none" stroke="#000000" d="M1469.822,-471.2154C1464.0362,-468.612 1457.835,-466.0769 1451.8994,-464.132 1376.0265,-439.2718 1353.0269,-448.7733 1275.8994,-428.132 1222.0542,-413.7217 1211.2272,-401.0019 1156.8994,-388.5341 1087.4017,-372.5849 884.4026,-349.4242 785.4348,-338.6538"/>
<polygon fill="#16a9f3" stroke="#000000" points="785.6481,-335.1565 775.329,-337.5578 784.8933,-342.1157 785.6481,-335.1565"/>
</g>
<!-- pypandoc&#45;&gt;supermark_code -->
<g id="edge17" class="edge">
<title>pypandoc&#45;&gt;supermark_code</title><style>.edge>path:hover{stroke-width:8}</style>
<path fill="none" stroke="#000000" d="M1469.099,-471.72C1463.4611,-469.1447 1457.5038,-466.494 1451.8994,-464.132 1324.2542,-410.3372 1288.7888,-405.7456 1160.8994,-352.5341 1094.3157,-324.8303 1018.1011,-289.9155 972.8164,-268.8256"/>
<polygon fill="#16a9f3" stroke="#000000" points="974.1792,-265.5992 963.6372,-264.5426 971.2193,-271.9427 974.1792,-265.5992"/>
</g>
<!-- pypandoc&#45;&gt;supermark_extensions_figure -->
<g id="edge18" class="edge">
<title>pypandoc&#45;&gt;supermark_extensions_figure</title><style>.edge>path:hover{stroke-width:8}</style>
<path fill="none" stroke="#000000" d="M1531.8994,-332.7351C1526.8081,-316.1413 1492.1694,-292.1423 1462.744,-274.2724"/>
<polygon fill="#16a9f3" stroke="#000000" points="1464.1974,-271.0636 1453.8179,-268.9383 1460.6066,-277.0725 1464.1974,-271.0636"/>
<path fill="none" stroke="#000000" d="M1505.2427,-466.5214C1520.7109,-438.2058 1546.5637,-380.5302 1531.8994,-332.7351"/>
</g>
<!-- pypandoc&#45;&gt;supermark_extensions_hints -->
<g id="edge19" class="edge">
<title>pypandoc&#45;&gt;supermark_extensions_hints</title><style>.edge>path:hover{stroke-width:8}</style>
<path fill="none" stroke="#000000" d="M1531.8994,-332.7351C1527.4616,-318.2712 1526.6786,-301.7019 1527.2929,-287.2135"/>
<polygon fill="#16a9f3" stroke="#000000" points="1530.7947,-287.2984 1527.9548,-277.0913 1523.8096,-286.8415 1530.7947,-287.2984"/>
</g>
<!-- supermark_extensions_table -->
<g id="node25" class="node">
<title>supermark_extensions_table</title><style>.edge>path:hover{stroke-width:8}</style>
<ellipse fill="#6646a4" stroke="#000000" cx="1643.8994" cy="-250.066" rx="47.1669" ry="26.7407"/>
<text text-anchor="middle" x="1643.8994" y="-257.066" font-family="Helvetica,sans-Serif" font-size="10.00" fill="#ffffff">supermark.</text>
<text text-anchor="middle" x="1643.8994" y="-247.066" font-family="Helvetica,sans-Serif" font-size="10.00" fill="#ffffff">extensions.</text>
<text text-anchor="middle" x="1643.8994" y="-237.066" font-family="Helvetica,sans-Serif" font-size="10.00" fill="#ffffff">table</text>
</g>
<!-- pypandoc&#45;&gt;supermark_extensions_table -->
<g id="edge20" class="edge">
<title>pypandoc&#45;&gt;supermark_extensions_table</title><style>.edge>path:hover{stroke-width:8}</style>
<path fill="none" stroke="#000000" d="M1519.8826,-471.1051C1585.9355,-436.9889 1759.8834,-345.7202 1755.8994,-332.7351"/>
<path fill="none" stroke="#000000" d="M1755.8994,-332.7351C1759.5035,-315.2083 1721.465,-290.298 1688.7528,-272.4101"/>
<polygon fill="#16a9f3" stroke="#000000" points="1690.174,-269.2008 1679.7065,-267.5629 1686.8679,-275.3709 1690.174,-269.2008"/>
</g>
<!-- supermark_extensions_video -->
<g id="node26" class="node">
<title>supermark_extensions_video</title><style>.edge>path:hover{stroke-width:8}</style>
<ellipse fill="#6646a4" stroke="#000000" cx="1755.8994" cy="-250.066" rx="47.1669" ry="26.7407"/>
<text text-anchor="middle" x="1755.8994" y="-257.066" font-family="Helvetica,sans-Serif" font-size="10.00" fill="#ffffff">supermark.</text>
<text text-anchor="middle" x="1755.8994" y="-247.066" font-family="Helvetica,sans-Serif" font-size="10.00" fill="#ffffff">extensions.</text>
<text text-anchor="middle" x="1755.8994" y="-237.066" font-family="Helvetica,sans-Serif" font-size="10.00" fill="#ffffff">video</text>
</g>
<!-- pypandoc&#45;&gt;supermark_extensions_video -->
<g id="edge21" class="edge">
<title>pypandoc&#45;&gt;supermark_extensions_video</title><style>.edge>path:hover{stroke-width:8}</style>
<path fill="none" stroke="#000000" d="M1755.8994,-332.7351C1758.9235,-318.029 1759.4761,-301.5376 1759.0721,-287.1756"/>
<polygon fill="#16a9f3" stroke="#000000" points="1762.5673,-286.9864 1758.6306,-277.1502 1755.5741,-287.2945 1762.5673,-286.9864"/>
</g>
<!-- requests -->
<g id="node14" class="node">
<title>requests</title><style>.edge>path:hover{stroke-width:8}</style>
<ellipse fill="#406ac0" stroke="#000000" cx="1887.8994" cy="-483.931" rx="31.2636" ry="18"/>
<text text-anchor="middle" x="1887.8994" y="-480.931" font-family="Helvetica,sans-Serif" font-size="10.00" fill="#ffffff">requests</text>
</g>
<!-- requests&#45;&gt;supermark_extensions_video -->
<g id="edge22" class="edge">
<title>requests&#45;&gt;supermark_extensions_video</title><style>.edge>path:hover{stroke-width:8}</style>
<path fill="none" stroke="#000000" d="M1881.3303,-466.1866C1869.1402,-434.258 1841.2054,-365.5531 1807.8994,-312.9361 1801.1521,-302.2767 1792.8058,-291.4247 1784.7897,-281.8042"/>
<polygon fill="#406ac0" stroke="#000000" points="1787.3264,-279.3848 1778.1762,-274.0439 1781.9987,-283.9252 1787.3264,-279.3848"/>
</g>
<!-- rich -->
<g id="node15" class="node">
<title>rich</title><style>.edge>path:hover{stroke-width:8}</style>
<ellipse fill="#4040c0" stroke="#000000" cx="1196.8994" cy="-332.7351" rx="27" ry="18"/>
<text text-anchor="middle" x="1196.8994" y="-329.7351" font-family="Helvetica,sans-Serif" font-size="10.00" fill="#ffffff">rich</text>
</g>
<!-- supermark_core -->
<g id="node21" class="node">
<title>supermark_core</title><style>.edge>path:hover{stroke-width:8}</style>
<ellipse fill="#461b9c" stroke="#000000" cx="653.8994" cy="-169.196" rx="49.1902" ry="18"/>
<text text-anchor="middle" x="653.8994" y="-166.196" font-family="Helvetica,sans-Serif" font-size="10.00" fill="#ffffff">supermark.core</text>
</g>
<!-- rich&#45;&gt;supermark_core -->
<g id="edge23" class="edge">
<title>rich&#45;&gt;supermark_core</title><style>.edge>path:hover{stroke-width:8}</style>
<path fill="none" stroke="#000000" d="M1181.9716,-317.6009C1164.2856,-300.1278 1133.4767,-271.0975 1103.8994,-250.066"/>
</g>
<!-- supermark -->
<g id="node16" class="node">
<title>supermark</title><style>.edge>path:hover{stroke-width:8}</style>
<ellipse fill="#5005e5" stroke="#000000" cx="692.8994" cy="-95.397" rx="36.519" ry="18"/>
<text text-anchor="middle" x="692.8994" y="-92.397" font-family="Helvetica,sans-Serif" font-size="10.00" fill="#ffffff">supermark</text>
</g>
<!-- supermark_build_html&#45;&gt;supermark_command -->
<g id="edge24" class="edge">
<title>supermark_build_html&#45;&gt;supermark_command</title><style>.edge>path:hover{stroke-width:8}</style>
<path fill="none" stroke="#000000" d="M128.4072,-84.8058C178.9233,-71.2635 266.4132,-47.8094 321.3429,-33.084"/>
<polygon fill="#482b82" stroke="#000000" points="322.4517,-36.4104 331.2044,-30.4403 320.6391,-29.6491 322.4517,-36.4104"/>
</g>
<!-- supermark_chunks&#45;&gt;supermark -->
<g id="edge25" class="edge">
<title>supermark_chunks&#45;&gt;supermark</title><style>.edge>path:hover{stroke-width:8}</style>
<path fill="none" stroke="#000000" d="M729.8994,-250.066C711.461,-219.2104 746.5257,-201.5666 730.8994,-169.196"/>
<path fill="none" stroke="#000000" d="M730.8994,-169.196C723.264,-153.379 714.2861,-135.8958 706.9744,-121.9178"/>
<polygon fill="#4c05db" stroke="#000000" points="709.9665,-120.0875 702.2157,-112.8642 703.7703,-123.3444 709.9665,-120.0875"/>
</g>
<!-- supermark_chunks&#45;&gt;supermark_build_html -->
<g id="edge26" class="edge">
<title>supermark_chunks&#45;&gt;supermark_build_html</title><style>.edge>path:hover{stroke-width:8}</style>
<path fill="none" stroke="#000000" d="M735.299,-312.8575C738.9341,-295.1012 741.2371,-269.0391 729.8994,-250.066"/>
<path fill="none" stroke="#000000" d="M729.8994,-250.066C722.3967,-237.5107 723.3477,-230.8748 710.8994,-223.196 574.3221,-138.9478 464.4448,-285.518 353.8994,-169.196"/>
</g>
<!-- supermark_chunks&#45;&gt;supermark_code -->
<g id="edge27" class="edge">
<title>supermark_chunks&#45;&gt;supermark_code</title><style>.edge>path:hover{stroke-width:8}</style>
<path fill="none" stroke="#000000" d="M763.877,-318.8981C798.4829,-304.8053 852.2539,-282.9078 889.8269,-267.6067"/>
<polygon fill="#4c05db" stroke="#000000" points="891.545,-270.6862 899.4864,-263.673 888.9049,-264.2031 891.545,-270.6862"/>
</g>
<!-- supermark_chunks&#45;&gt;supermark_core -->
<g id="edge28" class="edge">
<title>supermark_chunks&#45;&gt;supermark_core</title><style>.edge>path:hover{stroke-width:8}</style>
<path fill="none" stroke="#000000" d="M729.8994,-250.066C722.3967,-237.5107 720.477,-234.2502 710.8994,-223.196 701.743,-212.6279 690.7727,-201.8589 680.9123,-192.7468"/>
<polygon fill="#4c05db" stroke="#000000" points="683.0535,-189.9633 673.2982,-185.8298 678.3465,-195.1446 683.0535,-189.9633"/>
</g>
<!-- supermark_extend -->
<g id="node22" class="node">
<title>supermark_extend</title><style>.edge>path:hover{stroke-width:8}</style>
<ellipse fill="#6231c4" stroke="#000000" cx="804.8994" cy="-250.066" rx="46.8595" ry="19.6"/>
<text text-anchor="middle" x="804.8994" y="-252.066" font-family="Helvetica,sans-Serif" font-size="10.00" fill="#ffffff">supermark.</text>
<text text-anchor="middle" x="804.8994" y="-242.066" font-family="Helvetica,sans-Serif" font-size="10.00" fill="#ffffff">extend</text>
</g>
<!-- supermark_chunks&#45;&gt;supermark_extend -->
<g id="edge29" class="edge">
<title>supermark_chunks&#45;&gt;supermark_extend</title><style>.edge>path:hover{stroke-width:8}</style>
<path fill="none" stroke="#000000" d="M746.918,-313.9762C756.9867,-302.8779 769.897,-288.6475 780.9784,-276.433"/>
<polygon fill="#4c05db" stroke="#000000" points="783.821,-278.5087 787.9481,-268.7507 778.6366,-273.8052 783.821,-278.5087"/>
</g>
<!-- supermark_parse -->
<g id="node27" class="node">
<title>supermark_parse</title><style>.edge>path:hover{stroke-width:8}</style>
<ellipse fill="#623ab0" stroke="#000000" cx="654.8994" cy="-250.066" rx="46.8595" ry="19.6"/>
<text text-anchor="middle" x="654.8994" y="-252.066" font-family="Helvetica,sans-Serif" font-size="10.00" fill="#ffffff">supermark.</text>
<text text-anchor="middle" x="654.8994" y="-242.066" font-family="Helvetica,sans-Serif" font-size="10.00" fill="#ffffff">parse</text>
</g>
<!-- supermark_chunks&#45;&gt;supermark_parse -->
<g id="edge30" class="edge">
<title>supermark_chunks&#45;&gt;supermark_parse</title><style>.edge>path:hover{stroke-width:8}</style>
<path fill="none" stroke="#000000" d="M712.8807,-313.9762C702.812,-302.8779 689.9017,-288.6475 678.8203,-276.433"/>
<polygon fill="#4c05db" stroke="#000000" points="681.1621,-273.8052 671.8507,-268.7507 675.9777,-278.5087 681.1621,-273.8052"/>
</g>
<!-- supermark_code&#45;&gt;supermark_core -->
<g id="edge31" class="edge">
<title>supermark_code&#45;&gt;supermark_core</title><style>.edge>path:hover{stroke-width:8}</style>
<path fill="none" stroke="#000000" d="M899.1078,-236.5631C887.1395,-232.019 873.5139,-227.1131 860.8994,-223.196 797.8973,-203.6323 780.6239,-204.26 716.8994,-187.196 712.202,-185.9381 707.3166,-184.5984 702.437,-183.2393"/>
<polygon fill="#553399" stroke="#000000" points="703.0654,-179.7802 692.4912,-180.4421 701.1702,-186.5188 703.0654,-179.7802"/>
</g>
<!-- supermark_core&#45;&gt;supermark -->
<g id="edge32" class="edge">
<title>supermark_core&#45;&gt;supermark</title><style>.edge>path:hover{stroke-width:8}</style>
<path fill="none" stroke="#000000" d="M663.3402,-151.3313C668.0211,-142.4737 673.7669,-131.601 678.944,-121.8044"/>
<polygon fill="#461b9c" stroke="#000000" points="682.1022,-123.3192 683.6801,-112.8425 675.9132,-120.0485 682.1022,-123.3192"/>
</g>
<!-- supermark_core&#45;&gt;supermark_build_html -->
<g id="edge33" class="edge">
<title>supermark_core&#45;&gt;supermark_build_html</title><style>.edge>path:hover{stroke-width:8}</style>
<path fill="none" stroke="#000000" d="M607.1824,-163.0939C503.4749,-149.5479 254.4701,-117.0234 143.6693,-102.5509"/>
<polygon fill="#461b9c" stroke="#000000" points="144.074,-99.0741 133.7048,-101.2494 143.1673,-106.0151 144.074,-99.0741"/>
</g>
<!-- supermark_core&#45;&gt;supermark_command -->
<g id="edge34" class="edge">
<title>supermark_core&#45;&gt;supermark_command</title><style>.edge>path:hover{stroke-width:8}</style>
<path fill="none" stroke="#000000" d="M625.7296,-154.325C574.7421,-127.4085 467.098,-70.5827 409.3798,-40.113"/>
<polygon fill="#461b9c" stroke="#000000" points="410.7002,-36.8523 400.2228,-35.279 407.4323,-43.0427 410.7002,-36.8523"/>
</g>
<!-- supermark_extend&#45;&gt;supermark -->
<g id="edge35" class="edge">
<title>supermark_extend&#45;&gt;supermark</title><style>.edge>path:hover{stroke-width:8}</style>
<path fill="none" stroke="#000000" d="M782.6915,-232.2699C765.6556,-217.3148 743.061,-194.3894 730.8994,-169.196"/>
</g>
<!-- supermark_extend&#45;&gt;supermark_core -->
<g id="edge36" class="edge">
<title>supermark_extend&#45;&gt;supermark_core</title><style>.edge>path:hover{stroke-width:8}</style>
<path fill="none" stroke="#000000" d="M775.785,-234.4735C751.5598,-221.4993 716.9321,-202.954 690.7723,-188.9437"/>
<polygon fill="#6231c4" stroke="#000000" points="692.3711,-185.8297 681.9033,-184.1938 689.0662,-192.0004 692.3711,-185.8297"/>
</g>
<!-- supermark_parse&#45;&gt;supermark_core -->
<g id="edge37" class="edge">
<title>supermark_parse&#45;&gt;supermark_core</title><style>.edge>path:hover{stroke-width:8}</style>
<path fill="none" stroke="#000000" d="M654.6522,-230.0757C654.5307,-220.2533 654.3822,-208.2466 654.2494,-197.4999"/>
<polygon fill="#623ab0" stroke="#000000" points="657.7467,-197.2566 654.1232,-187.3007 650.7473,-197.3433 657.7467,-197.2566"/>
</g>
<!-- supermark_report&#45;&gt;supermark_build_html -->
<g id="edge38" class="edge">
<title>supermark_report&#45;&gt;supermark_build_html</title><style>.edge>path:hover{stroke-width:8}</style>
<path fill="none" stroke="#000000" d="M88.8994,-169.196C88.6048,-154.8432 88.5681,-138.9169 88.6199,-125.5441"/>
<polygon fill="#5306ef" stroke="#000000" points="92.1203,-125.4653 88.6773,-115.4456 85.1204,-125.4255 92.1203,-125.4653"/>
</g>
<!-- supermark_report&#45;&gt;supermark_chunks -->
<g id="edge39" class="edge">
<title>supermark_report&#45;&gt;supermark_chunks</title><style>.edge>path:hover{stroke-width:8}</style>
<path fill="none" stroke="#000000" d="M691.8994,-408.333C695.8932,-391.7396 704.0892,-374.6361 711.8504,-360.9036"/>
<polygon fill="#5306ef" stroke="#000000" points="715.0444,-362.3768 717.0971,-351.9827 709.0106,-358.8281 715.0444,-362.3768"/>
</g>
<!-- supermark_report&#45;&gt;supermark_command -->
<g id="edge40" class="edge">
<title>supermark_report&#45;&gt;supermark_command</title><style>.edge>path:hover{stroke-width:8}</style>
<path fill="none" stroke="#000000" d="M541.8994,-332.7351C481.5146,-246.349 140.9063,-355.7263 70.8994,-276.9361 38.6531,-240.6441 89.8956,-217.7339 88.8994,-169.196"/>
<path fill="none" stroke="#000000" d="M88.8994,-169.196C84.3925,-122.6491 -6.2727,-137.5871 13.8994,-95.397"/>
<path fill="none" stroke="#000000" d="M618.2691,-471.0217C598.3888,-462.0056 574.8834,-447.9921 560.8994,-428.132 536.01,-392.7841 566.4851,-368.2948 541.8994,-332.7351"/>
</g>
<!-- supermark_report&#45;&gt;supermark_core -->
<g id="edge41" class="edge">
<title>supermark_report&#45;&gt;supermark_core</title><style>.edge>path:hover{stroke-width:8}</style>
<path fill="none" stroke="#000000" d="M541.8994,-332.7351C530.3157,-316.1635 570.5003,-267.9673 579.8994,-250.066"/>
<path fill="none" stroke="#000000" d="M579.8994,-250.066C591.4556,-228.0564 610.4851,-207.4525 626.3527,-192.5502"/>
<polygon fill="#5306ef" stroke="#000000" points="628.8175,-195.0392 633.8416,-185.7114 624.0971,-189.8702 628.8175,-195.0392"/>
</g>
<!-- supermark_report&#45;&gt;supermark_extend -->
<g id="edge42" class="edge">
<title>supermark_report&#45;&gt;supermark_extend</title><style>.edge>path:hover{stroke-width:8}</style>
<path fill="none" stroke="#000000" d="M678.5603,-466.858C708.9853,-444.3756 759.8698,-401.8661 785.8994,-352.5341 797.745,-330.0838 802.3135,-301.4652 804.0234,-280.1818"/>
<polygon fill="#5306ef" stroke="#000000" points="807.5235,-280.29 804.6665,-270.0877 800.5376,-279.8448 807.5235,-280.29"/>
</g>
<!-- supermark_report&#45;&gt;supermark_parse -->
<g id="edge43" class="edge">
<title>supermark_report&#45;&gt;supermark_parse</title><style>.edge>path:hover{stroke-width:8}</style>
<path fill="none" stroke="#000000" d="M691.8994,-408.333C697.997,-382.9986 680.288,-377.7967 673.8994,-352.5341 667.78,-328.3362 662.7384,-300.462 659.39,-279.9005"/>
<polygon fill="#5306ef" stroke="#000000" points="662.8227,-279.1997 657.7966,-269.873 655.9094,-280.2983 662.8227,-279.1997"/>
<path fill="none" stroke="#000000" d="M666.1156,-464.5269C674.8178,-449.7147 685.9813,-428.488 691.8994,-408.333"/>
</g>
<!-- supermark_utils -->
<g id="node29" class="node">
<title>supermark_utils</title><style>.edge>path:hover{stroke-width:8}</style>
<ellipse fill="#5d19e6" stroke="#000000" cx="616.8994" cy="-408.333" rx="46.8595" ry="19.6"/>
<text text-anchor="middle" x="616.8994" y="-410.333" font-family="Helvetica,sans-Serif" font-size="10.00" fill="#ffffff">supermark.</text>
<text text-anchor="middle" x="616.8994" y="-400.333" font-family="Helvetica,sans-Serif" font-size="10.00" fill="#ffffff">utils</text>
</g>
<!-- supermark_report&#45;&gt;supermark_utils -->
<g id="edge44" class="edge">
<title>supermark_report&#45;&gt;supermark_utils</title><style>.edge>path:hover{stroke-width:8}</style>
<path fill="none" stroke="#000000" d="M644.3709,-464.4627C640.2709,-456.0855 635.3952,-446.1235 630.8974,-436.9337"/>
<polygon fill="#5306ef" stroke="#000000" points="633.9353,-435.1787 626.3955,-427.7354 627.6479,-438.256 633.9353,-435.1787"/>
</g>
<!-- supermark_utils&#45;&gt;supermark_build_html -->
<g id="edge45" class="edge">
<title>supermark_utils&#45;&gt;supermark_build_html</title><style>.edge>path:hover{stroke-width:8}</style>
<path fill="none" stroke="#000000" d="M607.9519,-388.8191C600.7401,-373.4042 590.1467,-351.4468 579.8994,-332.7351"/>
<path fill="none" stroke="#000000" d="M579.8994,-332.7351C573.2574,-320.6068 568.3983,-318.851 555.8994,-312.9361 480.9736,-277.4785 430.9332,-336.1238 372.8994,-276.9361 338.8575,-242.2174 387.395,-204.4419 353.8994,-169.196"/>
</g>
<!-- supermark_utils&#45;&gt;supermark_chunks -->
<g id="edge46" class="edge">
<title>supermark_utils&#45;&gt;supermark_chunks</title><style>.edge>path:hover{stroke-width:8}</style>
<path fill="none" stroke="#000000" d="M641.9777,-391.5554C657.9241,-380.8871 678.7669,-366.9431 696.1565,-355.3094"/>
<polygon fill="#5d19e6" stroke="#000000" points="698.5258,-357.9354 704.8911,-349.4658 694.6334,-352.1173 698.5258,-357.9354"/>
</g>
<!-- supermark_utils&#45;&gt;supermark_core -->
<g id="edge47" class="edge">
<title>supermark_utils&#45;&gt;supermark_core</title><style>.edge>path:hover{stroke-width:8}</style>
<path fill="none" stroke="#000000" d="M579.8994,-332.7351C562.2512,-300.5093 562.8192,-282.5964 579.8994,-250.066"/>
</g>
<!-- supermark_utils&#45;&gt;supermark_parse -->
<g id="edge48" class="edge">
<title>supermark_utils&#45;&gt;supermark_parse</title><style>.edge>path:hover{stroke-width:8}</style>
<path fill="none" stroke="#000000" d="M579.8994,-332.7351C566.702,-308.6366 591.1286,-285.8737 615.5519,-270.3589"/>
<polygon fill="#5d19e6" stroke="#000000" points="617.3754,-273.3465 624.1289,-265.1831 613.7587,-267.3532 617.3754,-273.3465"/>
</g>
<!-- tqdm -->
<g id="node30" class="node">
<title>tqdm</title><style>.edge>path:hover{stroke-width:8}</style>
<ellipse fill="#9553b6" stroke="#000000" cx="106.8994" cy="-250.066" rx="27" ry="18"/>
<text text-anchor="middle" x="106.8994" y="-247.066" font-family="Helvetica,sans-Serif" font-size="10.00" fill="#ffffff">tqdm</text>
</g>
<!-- tqdm&#45;&gt;supermark_build_html -->
<g id="edge49" class="edge">
<title>tqdm&#45;&gt;supermark_build_html</title><style>.edge>path:hover{stroke-width:8}</style>
<path fill="none" stroke="#000000" d="M123.5926,-235.4815C129.393,-231.0104 136.1443,-226.4247 142.8994,-223.196 230.2361,-181.4518 420.583,-239.3641 353.8994,-169.196"/>
<path fill="none" stroke="#000000" d="M353.8994,-169.196C325.1491,-138.9433 212.1355,-115.6004 143.3171,-103.8335"/>
<polygon fill="#9553b6" stroke="#000000" points="143.5274,-100.3198 133.0855,-102.1135 142.3669,-107.223 143.5274,-100.3198"/>
</g>
<!-- watchdog -->
<g id="node31" class="node">
<title>watchdog</title><style>.edge>path:hover{stroke-width:8}</style>
<ellipse fill="#ce3bce" stroke="#000000" cx="185.8994" cy="-250.066" rx="33.9053" ry="18"/>
<text text-anchor="middle" x="185.8994" y="-247.066" font-family="Helvetica,sans-Serif" font-size="10.00" fill="#ffffff">watchdog</text>
</g>
<!-- watchdog&#45;&gt;supermark_build_html -->
<g id="edge50" class="edge">
<title>watchdog&#45;&gt;supermark_build_html</title><style>.edge>path:hover{stroke-width:8}</style>
<path fill="none" stroke="#000000" d="M207.4007,-235.7448C214.1572,-231.4869 221.7277,-226.9584 228.8994,-223.196 282.4901,-195.0811 395.5889,-213.064 353.8994,-169.196"/>
</g>
<!-- watchdog_events -->
<g id="node32" class="node">
<title>watchdog_events</title><style>.edge>path:hover{stroke-width:8}</style>
<ellipse fill="#b34cb3" stroke="#000000" cx="281.8994" cy="-250.066" rx="43.5957" ry="19.6"/>
<text text-anchor="middle" x="281.8994" y="-252.066" font-family="Helvetica,sans-Serif" font-size="10.00" fill="#ffffff">watchdog.</text>
<text text-anchor="middle" x="281.8994" y="-242.066" font-family="Helvetica,sans-Serif" font-size="10.00" fill="#ffffff">events</text>
</g>
<!-- watchdog_events&#45;&gt;supermark_build_html -->
<g id="edge51" class="edge">
<title>watchdog_events&#45;&gt;supermark_build_html</title><style>.edge>path:hover{stroke-width:8}</style>
<path fill="none" stroke="#000000" d="M310.8244,-235.1979C339.1796,-218.7754 375.2663,-191.6794 353.8994,-169.196"/>
</g>
<!-- watchdog_observers -->
<g id="node33" class="node">
<title>watchdog_observers</title><style>.edge>path:hover{stroke-width:8}</style>
<ellipse fill="#b34cb3" stroke="#000000" cx="425.8994" cy="-250.066" rx="43.5957" ry="19.6"/>
<text text-anchor="middle" x="425.8994" y="-252.066" font-family="Helvetica,sans-Serif" font-size="10.00" fill="#ffffff">watchdog.</text>
<text text-anchor="middle" x="425.8994" y="-242.066" font-family="Helvetica,sans-Serif" font-size="10.00" fill="#ffffff">observers</text>
</g>
<!-- watchdog_observers&#45;&gt;supermark_build_html -->
<g id="edge52" class="edge">
<title>watchdog_observers&#45;&gt;supermark_build_html</title><style>.edge>path:hover{stroke-width:8}</style>
<path fill="none" stroke="#000000" d="M409.9341,-231.4513C395.5605,-214.8585 373.7123,-190.0442 353.8994,-169.196"/>
</g>
<!-- wikitextparser -->
<g id="node34" class="node">
<title>wikitextparser</title><style>.edge>path:hover{stroke-width:8}</style>
<ellipse fill="#c04095" stroke="#000000" cx="1793.8994" cy="-483.931" rx="44.5597" ry="18"/>
<text text-anchor="middle" x="1793.8994" y="-480.931" font-family="Helvetica,sans-Serif" font-size="10.00" fill="#ffffff">wikitextparser</text>
</g>
<!-- wikitextparser&#45;&gt;supermark_extensions_table -->
<g id="edge53" class="edge">
<title>wikitextparser&#45;&gt;supermark_extensions_table</title><style>.edge>path:hover{stroke-width:8}</style>
<path fill="none" stroke="#000000" d="M1796.4817,-465.7106C1800.2244,-432.1016 1803.428,-359.5344 1769.8994,-312.9361 1768.5477,-311.0575 1724.6878,-289.3935 1689.0936,-272.0142"/>
<polygon fill="#c04095" stroke="#000000" points="1690.3079,-268.7124 1679.7856,-267.4749 1687.2396,-275.0041 1690.3079,-268.7124"/>
</g>
<!-- yaml -->
<g id="node35" class="node">
<title>yaml</title><style>.edge>path:hover{stroke-width:8}</style>
<ellipse fill="#c24770" stroke="#000000" cx="952.8994" cy="-483.931" rx="27" ry="18"/>
<text text-anchor="middle" x="952.8994" y="-480.931" font-family="Helvetica,sans-Serif" font-size="10.00" fill="#ffffff">yaml</text>
</g>
<!-- yaml&#45;&gt;supermark_chunks -->
<g id="edge54" class="edge">
<title>yaml&#45;&gt;supermark_chunks</title><style>.edge>path:hover{stroke-width:8}</style>
<path fill="none" stroke="#000000" d="M926.3051,-480.7799C891.0458,-475.4112 828.4488,-461.6109 786.8994,-428.132 765.3705,-410.7849 750.0833,-382.9657 740.796,-361.8344"/>
<polygon fill="#c24770" stroke="#000000" points="743.9229,-360.2399 736.8339,-352.3661 737.4654,-362.9421 743.9229,-360.2399"/>
</g>
<!-- yaml&#45;&gt;supermark_core -->
<g id="edge55" class="edge">
<title>yaml&#45;&gt;supermark_core</title><style>.edge>path:hover{stroke-width:8}</style>
<path fill="none" stroke="#000000" d="M1103.8994,-250.066C1059.1513,-218.247 843.2357,-213.3323 716.8994,-187.196 711.8762,-186.1568 706.668,-184.9252 701.4957,-183.6012"/>
<polygon fill="#c24770" stroke="#000000" points="702.2163,-180.171 691.6514,-180.9676 700.4071,-186.9332 702.2163,-180.171"/>
<path fill="none" stroke="#000000" d="M979.5863,-480.627C1029.8257,-473.8001 1135.3468,-456.3714 1156.8994,-428.132 1176.5917,-402.33 1139.1534,-275.1341 1103.8994,-250.066"/>
</g>
</g>
</svg>
